<?xml version="1.0" encoding="utf-8"?>
<!-- Generator: Adobe Illustrator 16.0.0, SVG Export Plug-In . SVG Version: 6.00 Build 0)  -->
<!DOCTYPE svg PUBLIC "-//W3C//DTD SVG 1.1//EN" "http://www.w3.org/Graphics/SVG/1.1/DTD/svg11.dtd">
<svg version="1.1" xmlns="http://www.w3.org/2000/svg" xmlns:xlink="http://www.w3.org/1999/xlink" x="0px" y="0px"
	 width="32.689px" height="32.58px" viewBox="0 0 32.689 32.58" enable-background="new 0 0 32.689 32.58" xml:space="preserve">
<g id="Layer_2">
</g>
<g id="Layer_1">
	<path fill-rule="evenodd" clip-rule="evenodd" fill="#7156A0" d="M-40.644,18.114c0,3.62-2.98,6.56-6.631,6.55
		c-3.689,0-6.6-2.96-6.6-6.72c0-3.561,3-6.5,6.631-6.5C-43.563,11.444-40.644,14.395-40.644,18.114z"/>
	<path fill-rule="evenodd" clip-rule="evenodd" fill="#7156A0" d="M-30.974,18.044c0-1.62,0.029-3.239-0.01-4.859
		c-0.03-1.57-0.08-3.15-0.24-4.71c-0.16-1.591-0.721-3.051-1.84-4.25c-1.471-1.59-3.37-2.23-5.43-2.29
		c-4.601-0.12-9.201-0.14-13.791-0.16c-1.52,0-3.029,0.09-4.529,0.24c-3.36,0.34-5.7,2.35-6.311,5.67
		c-0.34,1.819-0.369,3.71-0.41,5.56c-0.06,3.18-0.039,6.36-0.01,9.54c0.02,1.62,0.1,3.24,0.25,4.85
		c0.301,3.261,2.35,5.561,5.551,6.301c1.84,0.43,3.729,0.38,5.609,0.399c3.24,0.04,6.48,0.04,9.721,0
		c1.569-0.02,3.149-0.09,4.709-0.24c1.62-0.17,3.11-0.729,4.33-1.89c1.54-1.46,2.141-3.33,2.24-5.36c0.141-2.93,0.17-5.859,0.25-8.8
		H-30.974z M-47.304,28.294c-5.63-0.01-10.21-4.63-10.189-10.29c0.02-5.63,4.619-10.199,10.229-10.189
		c5.67,0.01,10.26,4.609,10.239,10.24C-37.044,23.744-41.614,28.294-47.304,28.294z M-36.634,9.824c-1.33,0.01-2.38-1.03-2.391-2.37
		c-0.02-1.35,1.051-2.42,2.391-2.42c1.32,0,2.391,1.06,2.4,2.37C-34.224,8.754-35.274,9.814-36.634,9.824z"/>
	<path fill-rule="evenodd" clip-rule="evenodd" fill="#7156A0" d="M32.689,16.271c-0.08,2.939-0.11,5.87-0.25,8.8
		c-0.101,2.03-0.7,3.9-2.24,5.36c-1.22,1.159-2.71,1.72-4.33,1.89c-1.56,0.15-3.14,0.22-4.71,0.24h-0.05V21.76h0.2
		c1.39,0,2.77,0,4.159,0.011c0.16,0,0.23-0.03,0.25-0.221c0.051-0.449,0.141-0.899,0.211-1.35c0.06-0.4,0.109-0.79,0.17-1.19
		c0.06-0.39,0.119-0.77,0.18-1.159c0.07-0.45,0.14-0.9,0.2-1.341c0.02-0.13,0.05-0.25,0.08-0.399h-5.45
		c-0.011-0.07-0.011-0.13-0.011-0.19c0-1.26-0.029-2.529,0.011-3.79c0.04-1.159,0.53-2.069,1.659-2.56
		C23.159,9.4,23.579,9.3,24.009,9.3c0.891-0.01,1.78-0.02,2.671-0.02c0.039,0,0.069,0,0.109-0.01V4.5
		c-0.439-0.06-0.87-0.14-1.29-0.18c-0.72-0.07-1.43-0.14-2.14-0.18c-0.521-0.03-1.03-0.07-1.54-0.03
		c-0.7,0.06-1.391,0.149-2.07,0.37c-0.81,0.25-1.56,0.609-2.23,1.13c-0.719,0.57-1.289,1.29-1.689,2.11
		c-0.3,0.609-0.51,1.25-0.64,1.909c-0.15,0.74-0.21,1.471-0.21,2.23v4.24h-4.98v5.659h4.971v10.82c-1.181,0-2.351-0.01-3.53-0.02
		c-1.88-0.021-3.771,0.029-5.61-0.4c-1.22-0.28-2.279-0.79-3.13-1.5c-1.38-1.14-2.229-2.79-2.42-4.8
		c-0.149-1.61-0.229-3.23-0.25-4.851c-0.03-3.18-0.05-6.359,0.01-9.539c0.04-1.851,0.07-3.74,0.41-5.561
		c0.319-1.72,1.101-3.1,2.25-4.06c0.76-0.63,1.67-1.101,2.71-1.36c0.43-0.12,0.88-0.2,1.35-0.25C8.259,0.09,9.769,0,11.289,0
		c4.591,0.021,9.19,0.04,13.79,0.16c0.771,0.021,1.521,0.13,2.24,0.33c1.18,0.34,2.27,0.97,3.189,1.96
		c1.12,1.2,1.681,2.66,1.841,4.25c0.159,1.56,0.21,3.14,0.239,4.71c0.04,1.62,0.011,3.24,0.011,4.86H32.689z"/>
	<g>
	</g>
	<g>
	</g>
	<g>
	</g>
	<g>
	</g>
	<g>
	</g>
	<g>
	</g>
</g>
</svg>
