<?xml version="1.0" encoding="utf-8"?>
<!-- Generator: Adobe Illustrator 16.0.0, SVG Export Plug-In . SVG Version: 6.00 Build 0)  -->
<!DOCTYPE svg PUBLIC "-//W3C//DTD SVG 1.1//EN" "http://www.w3.org/Graphics/SVG/1.1/DTD/svg11.dtd">
<svg version="1.1" xmlns="http://www.w3.org/2000/svg" xmlns:xlink="http://www.w3.org/1999/xlink" x="0px" y="0px"
	 width="192.958px" height="120.5px" viewBox="0 0 192.958 120.5" enable-background="new 0 0 192.958 120.5" xml:space="preserve">
<g id="Layer_2">
</g>
<g id="Layer_1">
	<path display="none" opacity="0.3" fill-rule="evenodd" clip-rule="evenodd" d="M97.218,165.562
		c-3.926-4.396-7.593-8.503-11.485-12.861c3.766-4.259,7.478-8.455,11.431-12.924c3.825,4.268,7.554,8.427,11.52,12.85
		C104.884,156.914,101.181,161.089,97.218,165.562z"/>
	<path d="M82.868,75.533l1.068,1.001c-3.4,4.331-7.998,7.863-13.195,9.597c-12.129,0-18.726-6.531-18.726-18.658
		c0-12.863,8.396-22.525,20.591-26.724c4.131,0,9.863,0.533,13.928,1.266l-0.066,1.6c-1.066,0-2.266,0.201-3.266,0.6
		c-1.199,3.267-1.932,6.997-1.932,10.529h-1.801c-0.465-1.732-0.732-3.799-0.799-5.598c-1.934-1.799-5.131-2.799-7.73-2.799
		c-1.666,0-3.398,0.2-4.598,1.134c-1.332,3.065-2.066,8.662-2.266,11.993c1.467,0.4,3.998,0.668,6.064,0.668
		c3.199,0,5.463-0.4,7.33-2.332l1.465,0.333c-0.6,1.798-0.865,3.531-0.865,5.397c0,1.933,0.266,3.933,0.666,5.863l-1.666,0.267
		c-0.533-1.332-1.133-3.398-1.398-4.932c-1.666-0.266-3.865-0.333-5.531-0.333c-1.467,0-4.133,0.067-6.197,0.333
		c0,7.864,0.998,14.861,8.863,14.861C76.872,79.6,79.604,78,82.868,75.533z"/>
	<path d="M100.594,96.031c1.67,0.4,4.008,1.266,5.344,1.865l-0.334,1.397c-3.072-0.598-6.48-0.864-9.553-0.864
		c-2.27,0-5.877,0.065-9.484,0.531l-0.268-1.465c1.068-0.266,2.404-0.798,3.34-1.264c1.203-7.256,1.27-15.179,1.27-22.234
		c0-10.918-0.133-15.378-0.6-18.838c-1.004-0.466-2.605-0.8-3.742-0.866v-1.465c4.074,0,8.75-0.265,14.764-1.332l0.467,0.467
		c-0.869,3.727-1.27,7.39-1.27,11.116l0.668,0.066c1.604-4.259,4.742-8.587,8.217-11.649c6.947,0,11.289,6.857,11.289,13.78
		c0,9.319-7.615,17.241-16.166,20.836c-1.336,0-2.873-0.133-4.475-0.4C100.061,89.108,100.127,92.704,100.594,96.031z
		 M107.141,59.22c-1.336,0-3.875,2.397-6.078,8.388c0,8.188,0.066,9.186,0.268,11.316c1.068,1.332,2.938,2.13,4.607,2.13
		c0.936,0,1.803-0.066,2.738-0.332c0.936-3.662,1.338-8.655,1.338-12.382C110.014,62.215,109.079,59.22,107.141,59.22z"/>
	<path d="M127.256,55.298c-1.006-0.471-2.615-0.806-3.754-0.872V52.95c4.09,0,9.451-0.268,15.486-1.34l0.469,0.469
		c-0.871,3.754-1.408,8.918-1.408,16.694c0,7.508,0.203,12.401,0.604,14.346c1.408,0.402,3.084,1.006,4.426,1.609l-0.201,1.34
		c-3.018-0.401-7.041-0.604-10.057-0.604c-2.949,0-6.973,0.068-9.922,0.47l-0.201-1.34c1.207-0.671,2.814-1.206,4.156-1.677
		c0.402-2.012,0.939-9.721,0.939-19.039C127.793,61.063,127.592,58.046,127.256,55.298z"/>
	<path d="M175.629,75.589l1.066,1.001c-3.402,4.339-8.008,7.877-13.215,9.611c-12.146,0-18.754-6.541-18.754-18.688
		c0-12.882,8.41-22.56,20.623-26.765c4.139,0,9.877,0.533,13.949,1.268l-0.066,1.602c-1.068,0-2.27,0.2-3.271,0.602
		c-1.199,3.27-1.934,7.008-1.934,10.545h-1.803c-0.467-1.735-0.734-3.805-0.801-5.605c-1.936-1.803-5.141-2.804-7.744-2.804
		c-1.666,0-3.402,0.2-4.604,1.134c-1.602,3.738-2.404,11.08-2.404,15.085c0,8.676,0.201,17.086,8.877,17.086
		C169.622,79.66,172.358,78.059,175.629,75.589z"/>
	<path fill-rule="evenodd" clip-rule="evenodd" d="M41.088,53.354c-6.67,7.35-10.08,15.8-7.55,25.89
		c2.13,8.54,9.41,14.49,18.65,15.23c0.12,0.01,0.239,0.02,0.36,0.02h0.029c0.12,0.02,0.24,0.02,0.36,0.03l2.579-0.011
		c0.011-0.01,0.011-0.01,0.021,0l5.421-0.029c0.539,0.04,1.039,0.17,1.51,0.359c0.369,0.15,0.709,0.341,1.029,0.57l0.65,0.54
		l0.221,0.18l-2.951,3.57l-0.029,0.04l-4.26,5.18l-2.101,0.58l-4.88,1.351l-0.11,0.029h-8.1l0.739-0.89
		c1.701-2.05,3.25-3.91,4.781-5.77c0.109-0.141,0.219-0.28,0.319-0.421l3.97-4.81l0.33-0.4c-1.47,0.011-3.46,0.021-5.66,0
		c-0.3,0-0.63,0.011-0.97,0c-1.69,0-3.46-0.01-5.181-0.04c-10.01-0.13-18.029-6.27-20.299-15.31c-2.4-9.62,0.58-17.75,6.649-24.85
		l0.431-0.5l9.109-10.57l1.551-1.8c4.52-5.13,9.139-10.391,13.719-15.58l5.561-6.25c0.07-0.09,0.141-0.17,0.21-0.26l0.069-0.091
		c0.101-0.109,0.211-0.229,0.311-0.35l2.35-2.65l4.4,3.92l1.35,4.881l-0.689,0.8l-1.24,1.399c-4.58,5.21-9.199,10.471-13.699,15.57
		c-0.121,0.13-0.23,0.26-0.34,0.38v0.01l-8.611,10.04L41.088,53.354z"/>
	<g>
		<text transform="matrix(1 0 0 1 85.5288 37.3516)" fill="#764F9B" font-family="'JosefinSans-Bold'" font-size="16.5349">Fundacja</text>
	</g>
	<line fill="none" x1="35.92" y1="18.66" x2="32.719" y2="22.25"/>
	<line fill="none" x1="26.12" y1="99.47" x2="21.02" y2="105.66"/>
	<path d="M325.972,85.539l1.068,1.001c-3.4,4.331-7.998,7.863-13.195,9.597c-12.129,0-18.727-6.531-18.727-18.658
		c0-12.863,8.396-22.525,20.592-26.724c4.131,0,9.863,0.533,13.928,1.266l-0.066,1.6c-1.066,0-2.266,0.201-3.266,0.6
		c-1.199,3.267-1.932,6.997-1.932,10.529h-1.801c-0.465-1.732-0.732-3.799-0.799-5.598c-1.934-1.799-5.131-2.799-7.73-2.799
		c-1.666,0-3.398,0.2-4.598,1.134c-1.332,3.065-2.066,8.662-2.266,11.993c1.467,0.4,3.998,0.668,6.064,0.668
		c3.199,0,5.463-0.4,7.33-2.332l1.465,0.333c-0.6,1.798-0.865,3.531-0.865,5.397c0,1.933,0.266,3.933,0.666,5.863l-1.666,0.267
		c-0.533-1.332-1.133-3.398-1.398-4.932c-1.666-0.266-3.865-0.333-5.531-0.333c-1.467,0-4.133,0.067-6.197,0.333
		c0,7.864,0.998,14.861,8.863,14.861C319.976,89.605,322.708,88.005,325.972,85.539z"/>
	<path d="M343.699,106.037c1.67,0.4,4.008,1.266,5.344,1.865l-0.334,1.397c-3.072-0.598-6.48-0.864-9.553-0.864
		c-2.27,0-5.877,0.065-9.484,0.531l-0.268-1.465c1.068-0.266,2.404-0.798,3.34-1.264c1.203-7.256,1.27-15.179,1.27-22.234
		c0-10.918-0.133-15.378-0.6-18.838c-1.004-0.466-2.605-0.8-3.742-0.866v-1.465c4.074,0,8.75-0.265,14.764-1.332l0.467,0.467
		c-0.869,3.727-1.27,7.39-1.27,11.116l0.668,0.066c1.604-4.259,4.742-8.587,8.217-11.649c6.947,0,11.289,6.857,11.289,13.78
		c0,9.319-7.615,17.241-16.166,20.836c-1.336,0-2.873-0.133-4.475-0.4C343.166,99.114,343.232,102.709,343.699,106.037z
		 M350.246,69.225c-1.336,0-3.875,2.397-6.078,8.388c0,8.188,0.066,9.186,0.268,11.316c1.068,1.332,2.938,2.13,4.607,2.13
		c0.936,0,1.803-0.066,2.738-0.332c0.936-3.662,1.338-8.655,1.338-12.382C353.119,72.22,352.183,69.225,350.246,69.225z"/>
	<path d="M370.361,65.303c-1.006-0.471-2.615-0.806-3.754-0.872v-1.476c4.09,0,9.451-0.268,15.486-1.34l0.469,0.469
		c-0.871,3.754-1.408,8.918-1.408,16.694c0,7.508,0.203,12.401,0.604,14.346c1.408,0.402,3.084,1.006,4.426,1.609l-0.201,1.34
		c-3.018-0.401-7.041-0.604-10.057-0.604c-2.949,0-6.973,0.068-9.922,0.47l-0.201-1.34c1.207-0.671,2.814-1.206,4.156-1.677
		c0.402-2.012,0.939-9.721,0.939-19.039C370.898,71.069,370.697,68.051,370.361,65.303z"/>
	<path d="M418.734,85.594l1.066,1.001c-3.402,4.339-8.008,7.877-13.215,9.611c-12.146,0-18.754-6.541-18.754-18.688
		c0-12.882,8.41-22.56,20.623-26.765c4.139,0,9.877,0.533,13.949,1.268l-0.066,1.602c-1.068,0-2.27,0.2-3.271,0.602
		c-1.199,3.27-1.934,7.008-1.934,10.545h-1.803c-0.467-1.735-0.734-3.805-0.801-5.605c-1.936-1.803-5.141-2.804-7.744-2.804
		c-1.666,0-3.402,0.2-4.604,1.134c-1.602,3.738-2.404,11.08-2.404,15.085c0,8.676,0.201,17.086,8.877,17.086
		C412.726,89.666,415.462,88.064,418.734,85.594z"/>
	<path fill-rule="evenodd" clip-rule="evenodd" d="M313.097,30.268l-0.271,0.311l-4.729,5.37l-1.24,1.399
		c-4.58,5.21-9.201,10.471-13.701,15.57c-0.119,0.13-0.229,0.26-0.34,0.38v0.01l-8.609,10.04l-0.01,0.011
		c-6.67,7.35-10.08,15.8-7.551,25.89c2.131,8.54,9.41,14.49,18.65,15.23c0.24,0.02,0.49,0.039,0.75,0.05l8.02-0.04
		c0.541,0.04,1.041,0.17,1.51,0.359c0.371,0.15,0.711,0.341,1.031,0.57l0.65,0.54l0.219,0.18l-2.949,3.57l-0.031,0.04l-4.43,5.38
		c-0.469,0.57-0.959,1.16-1.459,1.76h-13.561l0.74-0.89c1.699-2.05,3.25-3.91,4.779-5.77c0.111-0.141,0.221-0.28,0.32-0.421
		l3.971-4.81l0.33-0.4c-2.781,0.021-7.48,0.021-11.811-0.04c-10.01-0.13-18.029-6.27-20.301-15.31
		c-2.398-9.62,0.58-17.75,6.65-24.85l0.43-0.5l9.111-10.57l1.549-1.8c4.521-5.13,9.141-10.391,13.721-15.58l5.561-6.25
		c0.18-0.23,0.379-0.46,0.59-0.7l4.859-5.46L313.097,30.268z"/>
	<g>
		<text transform="matrix(1 0 0 1 328.6333 47.3569)" font-family="'JosefinSans-Bold'" font-size="16.5349">Fundacja</text>
	</g>
	<line x1="300.691" y1="28.999" x2="297.49" y2="32.588"/>
	<line x1="312.83" y1="30.579" x2="306.839" y2="37.298"/>
	<path fill-rule="evenodd" clip-rule="evenodd" fill="#764F9B" d="M64.329,20.263l-0.27,0.311l-4.73,5.37l-1.24,1.399
		c-4.58,5.21-9.199,10.471-13.699,15.57c-0.121,0.13-0.23,0.26-0.34,0.38v0.01l-8.61,10.04l-0.011,0.011
		c-6.67,7.35-10.08,15.8-7.549,25.89c2.129,8.54,9.409,14.49,18.649,15.23c0.239,0.02,0.489,0.039,0.75,0.05l5.271-0.03h0.029
		l2.721-0.01c0.069,0.01,0.149,0.01,0.219,0.029c0.011-0.01,0.011-0.01,0.021,0c0.45,0.051,0.87,0.171,1.271,0.33
		c0.369,0.15,0.709,0.341,1.029,0.57l0.65,0.54l0.221,0.18l-2.951,3.57l-0.029,0.04l-4.43,5.38c-0.471,0.57-0.961,1.16-1.461,1.76
		h-13.56l0.739-0.89c1.701-2.05,3.25-3.91,4.781-5.77c0.109-0.141,0.219-0.28,0.319-0.421l3.97-4.81l0.33-0.4
		c-0.3,0-0.63,0.011-0.97,0c-2.83,0.021-6.979,0.011-10.84-0.04c-10.011-0.13-18.03-6.27-20.3-15.31
		c-2.4-9.62,0.58-17.75,6.65-24.85l0.43-0.5l9.109-10.57l1.551-1.8c4.52-5.13,9.14-10.391,13.719-15.58l5.561-6.25
		c0.18-0.23,0.381-0.46,0.59-0.7l4.86-5.46l3.149,2.81L64.329,20.263z"/>
	<path fill="#FFFFFF" d="M187.139,304.038l1.068,1.001c-3.4,4.331-7.998,7.863-13.195,9.597c-12.129,0-18.727-6.531-18.727-18.658
		c0-12.863,8.396-22.525,20.592-26.724c4.131,0,9.863,0.533,13.928,1.266l-0.066,1.6c-1.066,0-2.266,0.201-3.266,0.6
		c-1.199,3.267-1.932,6.997-1.932,10.529h-1.801c-0.465-1.732-0.732-3.799-0.799-5.598c-1.934-1.799-5.131-2.799-7.73-2.799
		c-1.666,0-3.398,0.2-4.598,1.134c-1.332,3.065-2.066,8.662-2.266,11.993c1.467,0.4,3.998,0.668,6.064,0.668
		c3.199,0,5.463-0.4,7.33-2.332l1.465,0.333c-0.6,1.798-0.865,3.531-0.865,5.397c0,1.933,0.266,3.933,0.666,5.863l-1.666,0.267
		c-0.533-1.332-1.133-3.398-1.398-4.932c-1.666-0.266-3.865-0.333-5.531-0.333c-1.467,0-4.133,0.067-6.197,0.333
		c0,7.864,0.998,14.861,8.863,14.861C181.143,308.104,183.875,306.505,187.139,304.038z"/>
	<path fill="#FFFFFF" d="M204.866,324.536c1.67,0.4,4.008,1.266,5.344,1.865l-0.334,1.397c-3.072-0.598-6.48-0.864-9.553-0.864
		c-2.27,0-5.877,0.065-9.484,0.531l-0.268-1.465c1.068-0.266,2.404-0.798,3.34-1.264c1.203-7.256,1.27-15.179,1.27-22.234
		c0-10.918-0.133-15.378-0.6-18.838c-1.004-0.466-2.605-0.8-3.742-0.866v-1.465c4.074,0,8.75-0.265,14.764-1.332l0.467,0.467
		c-0.869,3.727-1.27,7.39-1.27,11.116l0.668,0.066c1.604-4.259,4.742-8.587,8.217-11.649c6.947,0,11.289,6.857,11.289,13.78
		c0,9.319-7.615,17.241-16.166,20.836c-1.336,0-2.873-0.133-4.475-0.4C204.333,317.613,204.399,321.209,204.866,324.536z
		 M211.413,287.725c-1.336,0-3.875,2.397-6.078,8.388c0,8.188,0.066,9.186,0.268,11.316c1.068,1.332,2.938,2.13,4.607,2.13
		c0.936,0,1.803-0.066,2.738-0.332c0.936-3.662,1.338-8.655,1.338-12.382C214.286,290.72,213.35,287.725,211.413,287.725z"/>
	<path fill="#FFFFFF" d="M231.528,283.803c-1.006-0.471-2.615-0.806-3.754-0.872v-1.476c4.09,0,9.451-0.268,15.486-1.34l0.469,0.469
		c-0.871,3.754-1.408,8.918-1.408,16.694c0,7.508,0.203,12.401,0.604,14.346c1.408,0.402,3.084,1.006,4.426,1.609l-0.201,1.34
		c-3.018-0.401-7.041-0.604-10.057-0.604c-2.949,0-6.973,0.068-9.922,0.47l-0.201-1.34c1.207-0.671,2.814-1.206,4.156-1.677
		c0.402-2.012,0.939-9.721,0.939-19.039C232.065,289.568,231.864,286.551,231.528,283.803z"/>
	<path fill="#FFFFFF" d="M279.901,304.094l1.066,1.001c-3.402,4.339-8.008,7.877-13.215,9.611c-12.146,0-18.754-6.541-18.754-18.688
		c0-12.882,8.41-22.56,20.623-26.765c4.139,0,9.877,0.533,13.949,1.268l-0.066,1.602c-1.068,0-2.27,0.2-3.271,0.602
		c-1.199,3.27-1.934,7.008-1.934,10.545h-1.803c-0.467-1.735-0.734-3.805-0.801-5.605c-1.936-1.803-5.141-2.804-7.744-2.804
		c-1.666,0-3.402,0.2-4.604,1.134c-1.602,3.738-2.404,11.08-2.404,15.085c0,8.676,0.201,17.086,8.877,17.086
		C273.893,308.165,276.629,306.563,279.901,304.094z"/>
	<path fill-rule="evenodd" clip-rule="evenodd" fill="#FFFFFF" d="M174.264,248.768l-0.271,0.311l-4.729,5.37l-1.24,1.399
		c-4.58,5.21-9.201,10.471-13.701,15.57c-0.119,0.13-0.229,0.26-0.34,0.38v0.01l-8.609,10.04l-0.01,0.011
		c-6.67,7.35-10.08,15.8-7.551,25.89c2.131,8.54,9.41,14.49,18.65,15.23c0.24,0.02,0.49,0.039,0.75,0.05l8.02-0.04
		c0.541,0.04,1.041,0.17,1.51,0.359c0.371,0.15,0.711,0.341,1.031,0.57l0.65,0.54l0.219,0.18l-2.949,3.57l-0.031,0.04l-4.43,5.38
		c-0.469,0.57-0.959,1.16-1.459,1.76h-13.561l0.74-0.89c1.699-2.05,3.25-3.91,4.779-5.77c0.111-0.141,0.221-0.28,0.32-0.421
		l3.971-4.81l0.33-0.4c-2.781,0.021-7.48,0.021-11.811-0.04c-10.01-0.13-18.029-6.27-20.301-15.31
		c-2.398-9.62,0.58-17.75,6.65-24.85l0.43-0.5l9.111-10.57l1.549-1.8c4.521-5.13,9.141-10.391,13.721-15.58l5.561-6.25
		c0.18-0.23,0.379-0.46,0.59-0.7l4.859-5.46L174.264,248.768z"/>
	<g>
		<text transform="matrix(1 0 0 1 189.8003 265.8564)" fill="#FFFFFF" font-family="'JosefinSans-Bold'" font-size="16.5349">Fundacja</text>
	</g>
	<line fill="#FFFFFF" x1="161.858" y1="247.498" x2="158.657" y2="251.088"/>
	<line fill="#FFFFFF" x1="173.997" y1="249.078" x2="168.006" y2="255.798"/>
</g>
<g id="Layer_3">
</g>
</svg>
