<?xml version="1.0" encoding="utf-8"?>
<!-- Generator: Adobe Illustrator 16.0.0, SVG Export Plug-In . SVG Version: 6.00 Build 0)  -->
<!DOCTYPE svg PUBLIC "-//W3C//DTD SVG 1.1//EN" "http://www.w3.org/Graphics/SVG/1.1/DTD/svg11.dtd">
<svg version="1.1" id="Layer_1" xmlns="http://www.w3.org/2000/svg" xmlns:xlink="http://www.w3.org/1999/xlink" x="0px" y="0px"
	 width="431.399px" height="277.593px" viewBox="0 0 431.399 277.593" enable-background="new 0 0 431.399 277.593"
	 xml:space="preserve">
<text transform="matrix(1 0 0 1 188.3359 103.4033)" font-family="'JosefinSans-Regular'" font-size="58">F</text>
<text transform="matrix(1 0 0 1 217.9619 103.4033)"><tspan x="0" y="0" font-family="'JosefinSans-Regular'" font-size="54" letter-spacing="-2">u</tspan><tspan x="26.784" y="0" font-family="'JosefinSans-Regular'" font-size="54" letter-spacing="-2">n</tspan><tspan x="54.27" y="0" font-family="'JosefinSans-Regular'" font-size="54" letter-spacing="-2">d</tspan><tspan x="84.022" y="0" font-family="'JosefinSans-Regular'" font-size="54" letter-spacing="-2">a</tspan><tspan x="113.398" y="0" font-family="'JosefinSans-Regular'" font-size="54" letter-spacing="-3">c</tspan><tspan x="134.89" y="0" font-family="'JosefinSans-Regular'" font-size="54" letter-spacing="-2">j</tspan><tspan x="146.607" y="0" font-family="'JosefinSans-Regular'" font-size="54">a</tspan></text>
<g>
	<path d="M268.369,152.207c0-17.17-10.729-34.17-27.89-34.17c-8.59,7.59-16.34,18.32-20.311,28.879l-1.649-0.16
		c0-9.24,0.99-18.32,3.14-27.57l-1.16-1.148c-14.85,2.639-26.41,3.299-36.479,3.299v3.631c2.81,0.16,6.771,0.99,9.25,2.15
		c1.149,8.58,1.479,19.639,1.479,46.709c0,17.5-0.16,37.141-3.129,55.131c-2.32,1.16-5.621,2.479-8.261,3.139l0.66,3.631
		c8.92-1.15,17.83-1.32,23.44-1.32c7.6,0,16.01,0.66,23.609,2.15l0.82-3.471c-3.3-1.49-9.08-3.629-13.2-4.619
		c-1.16-8.26-1.32-17.17-1.32-25.59c3.96,0.66,7.75,0.99,11.061,0.99C249.56,194.957,268.369,175.316,268.369,152.207z
		 M220.499,186.047c-0.489-5.291-0.659-7.76-0.659-28.07c5.449-14.85,11.72-20.791,15.02-20.791c4.79,0,7.1,7.422,7.1,22.611
		c0,9.24-0.989,21.619-3.3,30.699c-2.31,0.66-4.46,0.83-6.77,0.83C227.77,191.326,223.14,189.346,220.499,186.047z"/>
	<path d="M284.364,127.111c-2.476-1.156-6.438-1.98-9.243-2.145v-3.631c10.069,0,23.274-0.662,38.131-3.303l1.155,1.156
		c-2.146,9.242-3.467,21.953-3.467,41.102c0,18.488,0.496,30.537,1.485,35.324c3.468,0.99,7.595,2.477,10.896,3.961l-0.495,3.303
		c-7.429-0.99-17.333-1.486-24.761-1.486c-7.264,0-17.167,0.166-24.431,1.156l-0.495-3.303c2.972-1.648,6.934-2.971,10.234-4.125
		c0.99-4.951,2.312-23.936,2.312-46.881C285.686,141.309,285.19,133.881,284.364,127.111L284.364,127.111z"/>
	<path d="M389.834,175.643c-5.612,11.555-14.856,22.615-26.576,28.227c-21.954,0-35.819-14.361-35.819-36.314
		c0-21.129,19.478-41.268,38.955-49.521c8.42,0,19.645,1.484,27.897,4.293v2.641c-11.39,10.234-13.04,15.186-14.196,25.256h-3.961
		c-0.33-4.127-0.66-6.934-1.651-10.564c-4.456-4.293-11.555-7.594-17.662-8.254c-1.815,9.738-2.972,19.148-2.972,29.217
		c0,12.875,2.477,25.256,15.352,25.256c6.934,0,14.361-5.613,17.992-11.555L389.834,175.643z"/>
</g>
<path d="M180.829,182.785c-14.023,13.412-29.424,20.678-44.178,20.678c-7.438,0-13.933-0.199-20.726-2.313
	c-8.821-2.75-17.761-6.105-21.993-19.242c-2.767-8.615-2.561-15.311,0.339-24.363c3.165-9.873,9.237-20.354,17.537-32.498
	l6.279-8.938c0.771-0.961,1.54-1.93,2.319-2.9c4.838-6.037,9.717-12.135,14.596-18.217c2.038-2.541,4.076-5.076,6.105-7.611
	l0.705-0.863l1.913-2.367l8.407-10.38c0.349-0.497,0.746-1.002,1.16-1.517l4.15-5.11l0.059-0.075l2.087,2.701
	c0.405,0.53,0.787,1.044,1.126,1.549l10.207,13.195l0.504,0.654c1.492,1.947,2.982,3.895,4.474,5.842
	c0.157,0.207,0.315,0.404,0.464,0.613v33.945l-3.777,0.018l-2.493,0.018c-0.862-6.455-2.825-11.914-5.435-15.525h-0.008
	c-1.458-2.037-3.123-3.488-4.912-4.199c-0.033-0.008-0.059-0.025-0.092-0.033c-0.952-0.373-1.938-0.695-2.932-0.961
	c-0.258-0.066-0.514-0.133-0.771-0.191l0.009,0.008c-0.654-0.131-1.3-0.223-1.938-0.271c-9.162-0.828-16.219,5.881-22.59,17.744
	c-2.617,4.869-5.119,10.611-7.605,17.055c6.057,0.232,16.884,0.299,22.21,0.299c8.251,0,14.099-1.035,18.912-6.014l3.463,0.779
	c-1.649,4.688-2.552,9.75-2.552,15.033c0,4.938,0.787,9.686,2.236,14.107l-4.184,0.672c-1.375-3.439-2.924-8.764-3.611-12.725
	c-4.291-0.688-9.535-0.066-13.834-0.066h-25.398c-1.972,6.703-2.137,14.498,0.042,21.299c0.124,0.389,0.257,0.779,0.397,1.16
	c3.777,10.32,13.237,17.977,30.418,15.258c10.164-1.605,16.774-5.756,24.105-11.191C177.491,179.621,179.099,181.27,180.829,182.785
	z"/>
<path d="M108.089,92.186l-7.58,10.791C102.89,99.496,105.419,95.906,108.089,92.186z"/>
<path opacity="0.5" fill-rule="evenodd" clip-rule="evenodd" d="M108.089,92.186l-7.58,10.791
	C102.89,99.496,105.419,95.906,108.089,92.186z"/>
<path fill-rule="evenodd" clip-rule="evenodd" d="M149.029,56.104l-0.522,0.693c-0.01,0.008-2.676,3.289-3.488,4.291
	c-0.422,0.522-0.854,1.061-1.292,1.599c-0.315,0.382-0.63,0.771-0.952,1.169c-1.02,1.258-2.071,2.551-3.141,3.868
	c-0.008,0.009-0.008,0.009-0.008,0.009c-1.077,1.324-2.162,2.666-3.264,4.025c-0.009,0.008-0.017,0.016-0.017,0.024l-1.815,2.237
	c-0.637,0.787-1.283,1.582-1.921,2.369c-11.232,13.842-22.2,27.359-22.2,27.359c-7.845,10.92-15.185,19.957-21.091,30.32
	l-0.009,0.016c-2.551,4.482-4.838,9.221-6.775,14.463c-0.017,0.027-0.025,0.051-0.033,0.076c-1.558,3.695-2.709,7.504-3.404,11.457
	c-0.01,0.023-0.017,0.049-0.017,0.074c-0.497,2.832-0.763,5.723-0.779,8.699v0.031c0,0.281,0,0.557,0.009,0.838
	c-0.009,0.207-0.009,0.422-0.009,0.637v0.033c-0.009,2.311,0.132,4.664,0.438,7.059c0.009,0.123,0.033,0.256,0.059,0.381
	c0.563,3.238,1.475,6.627,2.684,10.404c0,0,0.961,2.543,0.969,2.551c1.061,2.203,2.171,4.193,3.323,5.998
	c0.422,0.654,0.845,1.283,1.283,1.889c5.89,8.242,13.097,12.193,22.731,15.168c2.07,0.637,3.95,1.16,5.74,1.574c0,0,0,0,0.008,0
	c0.465,0.107,0.928,0.215,1.384,0.305c0.763,0.166,1.517,0.309,2.261,0.424c0.589,0.107,1.178,0.189,1.766,0.273
	c2.518,0.348,5.068,0.531,7.952,0.613l8.954-0.051h0.589c1.151,0.082,2.212,0.355,3.206,0.764c0.795,0.32,1.516,0.729,2.194,1.217
	l1.118,0.92l0.266,0.215l0.008,0.008l0.465,0.391l-5.575,6.742l-0.009,0.008l-10.67,12.965h-0.008
	c-0.845,1.035-1.723,2.086-2.617,3.164H97.958l1.252-1.508l0.322-0.389c3.62-4.367,6.917-8.316,10.172-12.277
	c0.24-0.299,0.473-0.596,0.68-0.902l8.458-10.232l0.695-0.852c-0.397,0-0.812,0.008-1.242,0.008
	c-6.006,0.033-15.292,0.025-23.891-0.098c-21.306-0.275-38.37-13.338-43.208-32.582c-1.284-5.16-1.864-10.064-1.789-14.77
	c-0.1-6.852,1.168-13.27,3.586-19.441c2.635-6.719,6.122-14.34,11.026-22.002l14.704-20.785l7.314-9.525
	c8.698-11.357,15.117-18.498,24.371-30.029l24.463-30.233L149.029,56.104z"/>
<path fill-rule="evenodd" clip-rule="evenodd" fill="#6753A3" d="M142.983,48.25l-6.811,8.547c-0.009,0.008-2.676,3.289-3.487,4.291
	c-0.423,0.522-0.854,1.061-1.292,1.599c-0.315,0.382-0.63,0.771-0.953,1.169c-1.02,1.258-2.07,2.551-3.139,3.868
	c-0.009,0.009-0.009,0.009-0.009,0.009c-1.077,1.324-2.163,2.666-3.265,4.025c-0.008,0.008-0.016,0.016-0.016,0.024l-1.814,2.237
	c-0.639,0.787-1.283,1.582-1.922,2.369c-11.232,13.842-22.201,27.359-22.201,27.359c-7.844,10.92-15.184,19.957-21.09,30.32
	l-0.008,0.016c-2.552,4.482-4.838,9.221-6.777,14.463c-0.016,0.027-0.023,0.051-0.033,0.076c-1.557,3.695-2.708,7.504-3.404,11.457
	c-0.008,0.023-0.016,0.049-0.016,0.074c-0.498,2.832-0.763,5.723-0.779,8.699v0.031c0,0.281,0,0.557,0.008,0.838
	c-0.008,0.207-0.008,0.422-0.008,0.637v0.033c-0.009,2.311,0.133,4.664,0.438,7.059c0.009,0.123,0.034,0.256,0.058,0.381
	c0.564,3.238,1.476,6.627,2.686,10.404c0,0,0.96,2.543,0.969,2.551c1.061,2.203,2.17,4.193,3.322,5.998
	c0.422,0.654,0.845,1.283,1.283,1.889c5.889,8.242,13.097,12.193,22.73,15.168c2.07,0.637,3.951,1.16,5.742,1.574c0,0,0,0,0.007,0
	c0.464,0.107,0.929,0.215,1.384,0.305c0.762,0.166,1.516,0.309,2.262,0.424c0.588,0.107,1.176,0.189,1.764,0.273
	c2.52,0.348,5.07,0.531,7.953,0.613l8.955-0.051h0.588c1.151,0.082,2.212,0.355,3.205,0.764c0.796,0.32,1.517,0.729,2.195,1.217
	l1.119,0.92l0.265,0.215l0.009,0.008l0.463,0.391l-5.574,6.742l-0.009,0.008l-10.669,12.965h-0.009
	c-0.845,1.035-1.723,2.086-2.617,3.164h-28.86l1.25-1.508l0.322-0.389c3.621-4.367,6.918-8.316,10.174-12.277
	c0.24-0.299,0.473-0.596,0.679-0.902l8.458-10.232l0.695-0.852c-0.397,0-0.812,0.008-1.242,0.008
	c-6.006,0.033-15.292,0.025-23.891-0.098c-21.306-0.275-38.371-13.338-43.208-32.582c-1.284-5.16-1.864-10.064-1.79-14.77
	c-0.099-6.852,1.168-13.27,3.588-19.441c2.634-6.719,6.121-14.34,11.025-22.002l14.703-20.785l7.315-9.525
	c8.698-11.357,15.118-18.498,24.37-30.029l30.75-38.088L142.983,48.25z"/>
<path d="M310.829,558.785c-14.023,13.412-29.424,20.678-44.178,20.678c-7.438,0-13.933-0.199-20.726-2.313
	c-8.821-2.75-17.761-6.105-21.993-19.242c-2.767-8.615-2.561-15.311,0.339-24.363c3.165-9.873,9.237-20.354,17.537-32.498
	l6.279-8.938c0.771-0.961,1.54-1.93,2.319-2.9c4.838-6.037,9.717-12.135,14.596-18.217c2.038-2.541,4.076-5.076,6.105-7.611
	l0.705-0.863l1.913-2.367l8.407-10.38c0.349-0.497,0.746-1.002,1.16-1.517l4.15-5.11l0.059-0.075l2.087,2.701
	c0.405,0.53,0.787,1.044,1.126,1.549l10.207,13.195l0.504,0.654c1.492,1.947,2.982,3.895,4.474,5.842
	c0.157,0.207,0.315,0.404,0.464,0.613v33.945l-3.777,0.018l-2.493,0.018c-0.862-6.455-2.825-11.914-5.435-15.525h-0.008
	c-1.458-2.037-3.123-3.488-4.912-4.199c-0.033-0.008-0.059-0.025-0.092-0.033c-0.952-0.373-1.938-0.695-2.932-0.961
	c-0.258-0.066-0.514-0.133-0.771-0.191l0.009,0.008c-0.654-0.131-1.3-0.223-1.938-0.271c-9.162-0.828-16.219,5.881-22.59,17.744
	c-2.617,4.869-5.119,10.611-7.605,17.055c6.057,0.232,16.884,0.299,22.21,0.299c8.251,0,14.099-1.035,18.912-6.014l3.463,0.779
	c-1.649,4.688-2.552,9.75-2.552,15.033c0,4.938,0.787,9.686,2.236,14.107l-4.184,0.672c-1.375-3.439-2.924-8.764-3.611-12.725
	c-4.291-0.688-9.535-0.066-13.834-0.066h-25.398c-1.972,6.703-2.137,14.498,0.042,21.299c0.124,0.389,0.257,0.779,0.397,1.16
	c3.777,10.32,13.237,17.977,30.418,15.258c10.164-1.605,16.774-5.756,24.105-11.191C307.491,555.621,309.099,557.27,310.829,558.785
	z"/>
<path d="M238.089,468.186l-7.58,10.791C232.89,475.496,235.419,471.906,238.089,468.186z"/>
<path opacity="0.5" fill-rule="evenodd" clip-rule="evenodd" d="M238.089,468.186l-7.58,10.791
	C232.89,475.496,235.419,471.906,238.089,468.186z"/>
<path fill-rule="evenodd" clip-rule="evenodd" d="M279.029,432.104l-0.522,0.693c-0.01,0.008-2.676,3.289-3.488,4.291
	c-0.422,0.522-0.854,1.061-1.292,1.599c-0.315,0.382-0.63,0.771-0.952,1.169c-1.02,1.258-2.071,2.551-3.141,3.868
	c-0.008,0.009-0.008,0.009-0.008,0.009c-1.077,1.324-2.162,2.666-3.264,4.025c-0.009,0.008-0.017,0.016-0.017,0.024l-1.815,2.237
	c-0.637,0.787-1.283,1.582-1.921,2.369c-11.232,13.842-22.2,27.359-22.2,27.359c-7.845,10.92-15.185,19.957-21.091,30.32
	l-0.009,0.016c-2.551,4.482-4.838,9.221-6.775,14.463c-0.017,0.027-0.025,0.051-0.033,0.076c-1.558,3.695-2.709,7.504-3.404,11.457
	c-0.01,0.023-0.017,0.049-0.017,0.074c-0.497,2.832-0.763,5.723-0.779,8.699v0.031c0,0.281,0,0.557,0.009,0.838
	c-0.009,0.207-0.009,0.422-0.009,0.637v0.033c-0.009,2.311,0.132,4.664,0.438,7.059c0.009,0.123,0.033,0.256,0.059,0.381
	c0.563,3.238,1.475,6.627,2.684,10.404c0,0,0.961,2.543,0.969,2.551c1.061,2.203,2.171,4.193,3.323,5.998
	c0.422,0.654,0.845,1.283,1.283,1.889c5.89,8.242,13.097,12.193,22.731,15.168c2.07,0.637,3.95,1.16,5.74,1.574c0,0,0,0,0.008,0
	c0.465,0.107,0.928,0.215,1.384,0.305c0.763,0.166,1.517,0.309,2.261,0.424c0.589,0.107,1.178,0.189,1.766,0.273
	c2.518,0.348,5.068,0.531,7.952,0.613l8.954-0.051h0.589c1.151,0.082,2.212,0.355,3.206,0.764c0.795,0.32,1.516,0.729,2.194,1.217
	l1.118,0.92l0.266,0.215l0.008,0.008l0.465,0.391l-5.575,6.742l-0.009,0.008l-10.67,12.965h-0.008
	c-0.845,1.035-1.723,2.086-2.617,3.164h-28.861l1.252-1.508l0.322-0.389c3.62-4.367,6.917-8.316,10.172-12.277
	c0.24-0.299,0.473-0.596,0.68-0.902l8.458-10.232l0.695-0.852c-0.397,0-0.812,0.008-1.242,0.008
	c-6.006,0.033-15.292,0.025-23.891-0.098c-21.306-0.275-38.37-13.338-43.208-32.582c-1.284-5.16-1.864-10.064-1.789-14.77
	c-0.1-6.852,1.168-13.27,3.586-19.441c2.635-6.719,6.122-14.34,11.026-22.002l14.704-20.785l7.314-9.525
	c8.698-11.357,15.117-18.498,24.371-30.029l24.463-30.233L279.029,432.104z"/>
<path fill-rule="evenodd" clip-rule="evenodd" fill="#6753A3" d="M272.983,424.25l-6.811,8.547
	c-0.009,0.008-2.676,3.289-3.487,4.291c-0.423,0.522-0.854,1.061-1.292,1.599c-0.315,0.382-0.63,0.771-0.953,1.169
	c-1.02,1.258-2.07,2.551-3.139,3.868c-0.009,0.009-0.009,0.009-0.009,0.009c-1.077,1.324-2.163,2.666-3.265,4.025
	c-0.008,0.008-0.016,0.016-0.016,0.024l-1.814,2.237c-0.639,0.787-1.283,1.582-1.922,2.369
	c-11.232,13.842-22.201,27.359-22.201,27.359c-7.844,10.92-15.184,19.957-21.09,30.32l-0.008,0.016
	c-2.552,4.482-4.838,9.221-6.777,14.463c-0.016,0.027-0.023,0.051-0.033,0.076c-1.557,3.695-2.708,7.504-3.404,11.457
	c-0.008,0.023-0.016,0.049-0.016,0.074c-0.498,2.832-0.763,5.723-0.779,8.699v0.031c0,0.281,0,0.557,0.008,0.838
	c-0.008,0.207-0.008,0.422-0.008,0.637v0.033c-0.009,2.311,0.133,4.664,0.438,7.059c0.009,0.123,0.034,0.256,0.058,0.381
	c0.564,3.238,1.476,6.627,2.686,10.404c0,0,0.96,2.543,0.969,2.551c1.061,2.203,2.17,4.193,3.322,5.998
	c0.422,0.654,0.845,1.283,1.283,1.889c5.889,8.242,13.097,12.193,22.73,15.168c2.07,0.637,3.951,1.16,5.742,1.574c0,0,0,0,0.007,0
	c0.464,0.107,0.929,0.215,1.384,0.305c0.762,0.166,1.516,0.309,2.262,0.424c0.588,0.107,1.176,0.189,1.764,0.273
	c2.52,0.348,5.07,0.531,7.953,0.613l8.955-0.051h0.588c1.151,0.082,2.212,0.355,3.205,0.764c0.796,0.32,1.517,0.729,2.195,1.217
	l1.119,0.92l0.265,0.215l0.009,0.008l0.463,0.391l-5.574,6.742l-0.009,0.008l-10.669,12.965h-0.009
	c-0.845,1.035-1.723,2.086-2.617,3.164h-28.86l1.25-1.508l0.322-0.389c3.621-4.367,6.918-8.316,10.174-12.277
	c0.24-0.299,0.473-0.596,0.679-0.902l8.458-10.232l0.695-0.852c-0.397,0-0.812,0.008-1.242,0.008
	c-6.006,0.033-15.292,0.025-23.891-0.098c-21.306-0.275-38.371-13.338-43.208-32.582c-1.284-5.16-1.864-10.064-1.79-14.77
	c-0.099-6.852,1.168-13.27,3.588-19.441c2.634-6.719,6.121-14.34,11.025-22.002l14.703-20.785l7.315-9.525
	c8.698-11.357,15.118-18.498,24.37-30.029l30.75-38.088L272.983,424.25z"/>
<text transform="matrix(1 0 0 1 665.8115 100.7524)" font-family="'JosefinSans-Regular'" font-size="58">F</text>
<text transform="matrix(1 0 0 1 695.4375 100.7524)"><tspan x="0" y="0" font-family="'JosefinSans-Regular'" font-size="54" letter-spacing="-2">u</tspan><tspan x="26.784" y="0" font-family="'JosefinSans-Regular'" font-size="54" letter-spacing="-2">n</tspan><tspan x="54.27" y="0" font-family="'JosefinSans-Regular'" font-size="54" letter-spacing="-2">d</tspan><tspan x="84.022" y="0" font-family="'JosefinSans-Regular'" font-size="54" letter-spacing="-2">a</tspan><tspan x="113.398" y="0" font-family="'JosefinSans-Regular'" font-size="54" letter-spacing="-3">c</tspan><tspan x="134.89" y="0" font-family="'JosefinSans-Regular'" font-size="54" letter-spacing="-2">j</tspan><tspan x="146.607" y="0" font-family="'JosefinSans-Regular'" font-size="54">a</tspan></text>
<g>
	<path d="M745.845,149.555c0-17.17-10.729-34.17-27.89-34.17c-8.59,7.59-16.34,18.32-20.311,28.88l-1.649-0.16
		c0-9.24,0.99-18.32,3.14-27.57l-1.16-1.149c-14.85,2.64-26.409,3.3-36.479,3.3v3.63c2.811,0.16,6.77,0.99,9.25,2.15
		c1.15,8.58,1.48,19.64,1.48,46.71c0,17.5-0.16,37.14-3.131,55.13c-2.32,1.16-5.619,2.479-8.26,3.14l0.66,3.63
		c8.92-1.149,17.83-1.319,23.439-1.319c7.601,0,16.011,0.66,23.61,2.149l0.82-3.47c-3.3-1.49-9.08-3.63-13.2-4.62
		c-1.16-8.26-1.32-17.17-1.32-25.59c3.96,0.66,7.75,0.99,11.061,0.99C727.035,192.305,745.845,172.666,745.845,149.555z
		 M697.975,183.395c-0.489-5.29-0.659-7.76-0.659-28.07c5.449-14.85,11.72-20.79,15.02-20.79c4.79,0,7.1,7.421,7.1,22.61
		c0,9.24-0.989,21.62-3.3,30.7c-2.31,0.66-4.46,0.83-6.77,0.83C705.245,188.675,700.615,186.695,697.975,183.395z"/>
	<path d="M761.84,124.46c-2.476-1.156-6.438-1.98-9.243-2.146v-3.631c10.069,0,23.274-0.661,38.131-3.302l1.155,1.155
		c-2.146,9.243-3.467,21.954-3.467,41.103c0,18.488,0.496,30.537,1.485,35.324c3.468,0.99,7.595,2.477,10.896,3.961l-0.495,3.303
		c-7.429-0.991-17.333-1.486-24.761-1.486c-7.264,0-17.167,0.165-24.431,1.156l-0.495-3.303c2.972-1.649,6.934-2.971,10.234-4.125
		c0.99-4.952,2.312-23.936,2.312-46.881C763.161,138.657,762.666,131.229,761.84,124.46L761.84,124.46z"/>
	<path d="M867.31,172.992c-5.612,11.555-14.856,22.614-26.576,28.227c-21.954,0-35.819-14.361-35.819-36.314
		c0-21.13,19.478-41.268,38.955-49.521c8.42,0,19.645,1.484,27.897,4.292v2.641c-11.39,10.234-13.04,15.187-14.196,25.257h-3.961
		c-0.33-4.127-0.66-6.935-1.651-10.565c-4.456-4.292-11.555-7.593-17.662-8.253c-1.815,9.738-2.972,19.148-2.972,29.217
		c0,12.875,2.477,25.255,15.352,25.255c6.934,0,14.361-5.612,17.992-11.554L867.31,172.992z"/>
</g>
<path d="M658.306,180.133c-14.025,13.412-29.424,20.678-44.178,20.678c-7.439,0-13.934-0.199-20.727-2.312
	c-8.822-2.75-17.761-6.105-21.994-19.243c-2.766-8.615-2.559-15.31,0.34-24.363c3.164-9.873,9.236-20.354,17.537-32.497l6.279-8.938
	c0.771-0.961,1.541-1.93,2.32-2.9c4.836-6.037,9.717-12.134,14.596-18.216c2.037-2.542,4.074-5.077,6.105-7.612l0.703-0.862
	l1.914-2.367l8.408-10.381c0.348-0.496,0.746-1.002,1.159-1.516l4.15-5.111l0.058-0.074l2.088,2.7
	c0.406,0.53,0.787,1.044,1.126,1.55l10.206,13.195l0.506,0.654c1.49,1.947,2.982,3.895,4.473,5.841
	c0.157,0.207,0.314,0.405,0.465,0.613v33.946l-3.778,0.017l-2.493,0.018c-0.861-6.454-2.824-11.913-5.434-15.524h-0.01
	c-1.457-2.037-3.123-3.488-4.912-4.2c-0.031-0.008-0.057-0.025-0.091-0.033c-0.952-0.373-1.938-0.695-2.933-0.961
	c-0.257-0.066-0.514-0.133-0.77-0.19l0.008,0.008c-0.654-0.132-1.301-0.224-1.938-0.272c-9.162-0.828-16.221,5.881-22.59,17.744
	c-2.619,4.869-5.121,10.611-7.605,17.056c6.055,0.232,16.883,0.298,22.209,0.298c8.25,0,14.1-1.035,18.912-6.013l3.463,0.778
	c-1.648,4.688-2.553,9.75-2.553,15.034c0,4.938,0.787,9.685,2.237,14.107l-4.183,0.672c-1.376-3.439-2.925-8.764-3.612-12.726
	c-4.29-0.687-9.534-0.065-13.834-0.065h-25.397c-1.973,6.702-2.138,14.497,0.041,21.298c0.123,0.39,0.256,0.779,0.396,1.16
	c3.778,10.321,13.238,17.977,30.419,15.258c10.164-1.605,16.774-5.756,24.106-11.19C654.966,176.97,656.573,178.619,658.306,180.133
	z"/>
<path d="M585.565,89.535l-7.58,10.79C580.365,96.845,582.896,93.255,585.565,89.535z"/>
<path opacity="0.5" fill-rule="evenodd" clip-rule="evenodd" d="M585.565,89.535l-7.58,10.79
	C580.365,96.845,582.896,93.255,585.565,89.535z"/>
<path fill-rule="evenodd" clip-rule="evenodd" d="M626.505,53.453l-0.523,0.693c-0.009,0.008-2.676,3.288-3.487,4.291
	c-0.423,0.521-0.854,1.061-1.292,1.598c-0.315,0.382-0.63,0.771-0.953,1.169c-1.02,1.259-2.07,2.552-3.139,3.868
	c-0.009,0.009-0.009,0.009-0.009,0.009c-1.077,1.325-2.163,2.667-3.265,4.025c-0.008,0.009-0.016,0.017-0.016,0.024l-1.814,2.237
	c-0.639,0.787-1.283,1.583-1.922,2.369c-11.232,13.842-22.201,27.36-22.201,27.36c-7.844,10.919-15.184,19.957-21.09,30.32
	l-0.008,0.015c-2.552,4.483-4.838,9.222-6.777,14.464c-0.016,0.026-0.023,0.051-0.033,0.075c-1.557,3.695-2.708,7.505-3.404,11.457
	c-0.008,0.024-0.016,0.05-0.016,0.075c-0.498,2.832-0.763,5.723-0.779,8.698v0.032c0,0.281,0,0.556,0.008,0.837
	c-0.008,0.207-0.008,0.422-0.008,0.638v0.033c-0.009,2.311,0.133,4.664,0.438,7.058c0.009,0.124,0.034,0.257,0.058,0.382
	c0.564,3.238,1.476,6.627,2.686,10.403c0,0,0.96,2.544,0.969,2.552c1.061,2.203,2.17,4.192,3.322,5.998
	c0.422,0.654,0.845,1.283,1.283,1.889c5.889,8.241,13.097,12.193,22.73,15.167c2.07,0.637,3.951,1.16,5.742,1.574c0,0,0,0,0.007,0
	c0.464,0.107,0.929,0.215,1.384,0.306c0.762,0.166,1.516,0.308,2.262,0.423c0.588,0.108,1.176,0.19,1.764,0.274
	c2.52,0.348,5.07,0.53,7.953,0.612l8.955-0.05h0.588c1.151,0.082,2.212,0.355,3.205,0.763c0.796,0.321,1.517,0.729,2.195,1.217
	l1.119,0.92l0.265,0.215l0.009,0.008l0.463,0.391l-5.574,6.742l-0.009,0.009l-10.669,12.965h-0.009
	c-0.845,1.035-1.723,2.086-2.617,3.164h-28.86l1.25-1.508l0.322-0.39c3.621-4.366,6.918-8.315,10.174-12.277
	c0.24-0.298,0.473-0.595,0.679-0.902l8.458-10.231l0.695-0.852c-0.397,0-0.812,0.008-1.242,0.008
	c-6.006,0.032-15.292,0.025-23.891-0.099c-21.306-0.274-38.371-13.338-43.208-32.581c-1.284-5.16-1.864-10.064-1.79-14.771
	c-0.099-6.851,1.168-13.27,3.588-19.441c2.634-6.719,6.121-14.34,11.025-22.002l14.703-20.784l7.315-9.526
	c8.698-11.356,15.118-18.497,24.37-30.028l24.464-30.234L626.505,53.453z"/>
<rect x="1080.976" y="376" fill-rule="evenodd" clip-rule="evenodd" fill="#6753A3" width="221.899" height="277.593"/>
<path d="M765.306,555.133c-14.025,13.412-29.424,20.678-44.178,20.678c-7.439,0-13.934-0.199-20.727-2.311
	c-8.822-2.75-17.761-6.105-21.994-19.244c-2.766-8.615-2.559-15.309,0.34-24.363c3.164-9.873,9.236-20.354,17.537-32.496
	l6.279-8.939c0.771-0.961,1.541-1.93,2.32-2.9c4.836-6.037,9.717-12.133,14.596-18.215c2.037-2.543,4.074-5.078,6.105-7.613
	l0.703-0.861l1.914-2.367l8.408-10.381c0.348-0.496,0.746-1.002,1.159-1.516l4.15-5.111l0.058-0.074l2.088,2.699
	c0.406,0.531,0.787,1.045,1.126,1.551l10.206,13.195l0.506,0.654c1.49,1.947,2.982,3.895,4.473,5.84
	c0.157,0.207,0.314,0.406,0.465,0.613v33.947l-3.778,0.016l-2.493,0.018c-0.861-6.453-2.824-11.912-5.434-15.523h-0.01
	c-1.457-2.037-3.123-3.488-4.912-4.201c-0.031-0.008-0.057-0.025-0.091-0.033c-0.952-0.373-1.938-0.695-2.933-0.961
	c-0.257-0.066-0.514-0.133-0.77-0.189l0.008,0.008c-0.654-0.133-1.301-0.225-1.938-0.273c-9.162-0.828-16.221,5.881-22.59,17.744
	c-2.619,4.869-5.121,10.611-7.605,17.057c6.055,0.232,16.883,0.297,22.209,0.297c8.25,0,14.1-1.035,18.912-6.012l3.463,0.777
	c-1.648,4.688-2.553,9.75-2.553,15.035c0,4.938,0.787,9.684,2.237,14.107l-4.183,0.672c-1.376-3.439-2.925-8.764-3.612-12.727
	c-4.29-0.686-9.534-0.064-13.834-0.064h-25.397c-1.973,6.701-2.138,14.496,0.041,21.297c0.123,0.391,0.256,0.779,0.396,1.16
	c3.778,10.322,13.238,17.977,30.419,15.258c10.164-1.605,16.774-5.756,24.106-11.189
	C761.966,551.971,763.573,553.619,765.306,555.133z"/>
<path fill-rule="evenodd" clip-rule="evenodd" d="M733.505,428.453l-0.523,0.693c-0.009,0.008-2.676,3.287-3.487,4.291
	c-0.423,0.521-0.854,1.061-1.292,1.598c-0.315,0.381-0.63,0.771-0.953,1.168c-1.02,1.26-2.07,2.553-3.139,3.869
	c-0.009,0.008-0.009,0.008-0.009,0.008c-1.077,1.326-2.163,2.668-3.265,4.025c-0.008,0.01-0.016,0.018-0.016,0.025l-1.814,2.236
	c-0.639,0.787-1.283,1.584-1.922,2.369c-11.232,13.842-22.201,27.361-22.201,27.361c-7.844,10.918-15.184,19.957-21.09,30.32
	l-0.008,0.014c-2.552,4.484-4.838,9.223-6.777,14.465c-0.016,0.025-0.023,0.051-0.033,0.074c-1.557,3.695-2.708,7.506-3.404,11.457
	c-0.008,0.025-0.016,0.051-0.016,0.076c-0.498,2.832-0.763,5.723-0.779,8.697v0.033c0,0.281,0,0.555,0.008,0.836
	c-0.008,0.207-0.008,0.422-0.008,0.639v0.033c-0.009,2.311,0.133,4.664,0.438,7.057c0.009,0.125,0.034,0.258,0.058,0.383
	c0.564,3.238,1.476,6.627,2.686,10.402c0,0,0.96,2.545,0.969,2.553c1.061,2.203,2.17,4.191,3.322,5.998
	c0.422,0.654,0.845,1.283,1.283,1.889c5.889,8.24,13.097,12.193,22.73,15.166c2.07,0.637,3.951,1.16,5.742,1.574c0,0,0,0,0.007,0
	c0.464,0.107,0.929,0.215,1.384,0.307c0.762,0.166,1.516,0.307,2.262,0.422c0.588,0.109,1.176,0.191,1.764,0.275
	c2.52,0.348,5.07,0.529,7.953,0.611l8.955-0.049h0.588c1.151,0.082,2.212,0.355,3.205,0.762c0.796,0.322,1.517,0.729,2.195,1.217
	l1.119,0.92l0.265,0.215l0.009,0.008l0.463,0.391l-5.574,6.742l-0.009,0.01l-10.669,12.965h-0.009
	c-0.845,1.035-1.723,2.086-2.617,3.164h-28.86l1.25-1.508l0.322-0.391c3.621-4.365,6.918-8.314,10.174-12.277
	c0.24-0.297,0.473-0.594,0.679-0.902l8.458-10.23l0.695-0.852c-0.397,0-0.812,0.008-1.242,0.008
	c-6.006,0.031-15.292,0.025-23.891-0.1c-21.306-0.273-38.371-13.338-43.208-32.58c-1.284-5.16-1.864-10.064-1.79-14.771
	c-0.099-6.85,1.168-13.27,3.588-19.441c2.634-6.719,6.121-14.34,11.025-22.002l14.703-20.783l7.315-9.527
	c8.698-11.355,15.118-18.496,24.37-30.027l24.464-30.234L733.505,428.453z"/>
<path fill="#FFFFFF" d="M1263.281,555.133c-14.025,13.412-29.424,20.678-44.178,20.678c-7.439,0-13.934-0.199-20.727-2.311
	c-8.822-2.75-17.761-6.105-21.994-19.244c-2.766-8.615-2.559-15.309,0.34-24.363c3.164-9.873,9.236-20.354,17.537-32.496
	l6.279-8.939c0.771-0.961,1.541-1.93,2.32-2.9c4.836-6.037,9.717-12.133,14.596-18.215c2.037-2.543,4.074-5.078,6.105-7.613
	l0.703-0.861l1.914-2.367l8.408-10.381c0.348-0.496,0.746-1.002,1.159-1.516l4.15-5.111l0.058-0.074l2.088,2.699
	c0.406,0.531,0.787,1.045,1.126,1.551l10.206,13.195l0.506,0.654c1.49,1.947,2.982,3.895,4.473,5.84
	c0.157,0.207,0.314,0.406,0.465,0.613v33.947l-3.778,0.016l-2.493,0.018c-0.861-6.453-2.824-11.912-5.434-15.523h-0.01
	c-1.457-2.037-3.123-3.488-4.912-4.201c-0.031-0.008-0.057-0.025-0.091-0.033c-0.952-0.373-1.938-0.695-2.933-0.961
	c-0.257-0.066-0.514-0.133-0.77-0.189l0.008,0.008c-0.654-0.133-1.301-0.225-1.938-0.273c-9.162-0.828-16.221,5.881-22.59,17.744
	c-2.619,4.869-5.121,10.611-7.605,17.057c6.055,0.232,16.883,0.297,22.209,0.297c8.25,0,14.1-1.035,18.912-6.012l3.463,0.777
	c-1.648,4.688-2.553,9.75-2.553,15.035c0,4.938,0.787,9.684,2.237,14.107l-4.183,0.672c-1.376-3.439-2.925-8.764-3.612-12.727
	c-4.29-0.686-9.534-0.064-13.834-0.064h-25.397c-1.973,6.701-2.138,14.496,0.041,21.297c0.123,0.391,0.256,0.779,0.396,1.16
	c3.778,10.322,13.238,17.977,30.419,15.258c10.164-1.605,16.774-5.756,24.106-11.189
	C1259.941,551.971,1261.549,553.619,1263.281,555.133z"/>
<path fill-rule="evenodd" clip-rule="evenodd" fill="#FFFFFF" d="M1231.48,428.453l-0.523,0.693
	c-0.009,0.008-2.676,3.287-3.487,4.291c-0.423,0.521-0.854,1.061-1.292,1.598c-0.315,0.381-0.63,0.771-0.953,1.168
	c-1.02,1.26-2.07,2.553-3.139,3.869c-0.009,0.008-0.009,0.008-0.009,0.008c-1.077,1.326-2.163,2.668-3.265,4.025
	c-0.008,0.01-0.016,0.018-0.016,0.025l-1.814,2.236c-0.639,0.787-1.283,1.584-1.922,2.369
	c-11.232,13.842-22.201,27.361-22.201,27.361c-7.844,10.918-15.184,19.957-21.09,30.32l-0.008,0.014
	c-2.552,4.484-4.838,9.223-6.777,14.465c-0.016,0.025-0.023,0.051-0.033,0.074c-1.557,3.695-2.708,7.506-3.404,11.457
	c-0.008,0.025-0.016,0.051-0.016,0.076c-0.498,2.832-0.763,5.723-0.779,8.697v0.033c0,0.281,0,0.555,0.008,0.836
	c-0.008,0.207-0.008,0.422-0.008,0.639v0.033c-0.009,2.311,0.133,4.664,0.438,7.057c0.009,0.125,0.034,0.258,0.058,0.383
	c0.564,3.238,1.476,6.627,2.686,10.402c0,0,0.96,2.545,0.969,2.553c1.061,2.203,2.17,4.191,3.322,5.998
	c0.422,0.654,0.845,1.283,1.283,1.889c5.889,8.24,13.097,12.193,22.73,15.166c2.07,0.637,3.951,1.16,5.742,1.574c0,0,0,0,0.007,0
	c0.464,0.107,0.929,0.215,1.384,0.307c0.762,0.166,1.516,0.307,2.262,0.422c0.588,0.109,1.176,0.191,1.764,0.275
	c2.52,0.348,5.07,0.529,7.953,0.611l8.955-0.049h0.588c1.151,0.082,2.212,0.355,3.205,0.762c0.796,0.322,1.517,0.729,2.195,1.217
	l1.119,0.92l0.265,0.215l0.009,0.008l0.463,0.391l-5.574,6.742l-0.009,0.01l-10.669,12.965h-0.009
	c-0.845,1.035-1.723,2.086-2.617,3.164h-28.86l1.25-1.508l0.322-0.391c3.621-4.365,6.918-8.314,10.174-12.277
	c0.24-0.297,0.473-0.594,0.679-0.902l8.458-10.23l0.695-0.852c-0.397,0-0.812,0.008-1.242,0.008
	c-6.006,0.031-15.292,0.025-23.891-0.1c-21.306-0.273-38.371-13.338-43.208-32.58c-1.284-5.16-1.864-10.064-1.79-14.771
	c-0.099-6.85,1.168-13.27,3.588-19.441c2.634-6.719,6.121-14.34,11.025-22.002l14.703-20.783l7.315-9.527
	c8.698-11.355,15.118-18.496,24.37-30.027l24.464-30.234L1231.48,428.453z"/>
<path fill="#FFFFFF" d="M1761.256,555.133c-14.025,13.412-29.424,20.678-44.178,20.678c-7.439,0-13.934-0.199-20.727-2.311
	c-8.822-2.75-17.761-6.105-21.994-19.244c-2.766-8.615-2.559-15.309,0.34-24.363c3.164-9.873,9.236-20.354,17.537-32.496
	l6.279-8.939c0.771-0.961,1.541-1.93,2.32-2.9c4.836-6.037,9.717-12.133,14.596-18.215c2.037-2.543,4.074-5.078,6.105-7.613
	l0.703-0.861l1.914-2.367l8.408-10.381c0.348-0.496,0.746-1.002,1.159-1.516l4.15-5.111l0.058-0.074l2.088,2.699
	c0.406,0.531,0.787,1.045,1.126,1.551l10.206,13.195l0.506,0.654c1.49,1.947,2.982,3.895,4.473,5.84
	c0.157,0.207,0.314,0.406,0.465,0.613v33.947l-3.778,0.016l-2.493,0.018c-0.861-6.453-2.824-11.912-5.434-15.523h-0.01
	c-1.457-2.037-3.123-3.488-4.912-4.201c-0.031-0.008-0.057-0.025-0.091-0.033c-0.952-0.373-1.938-0.695-2.933-0.961
	c-0.257-0.066-0.514-0.133-0.77-0.189l0.008,0.008c-0.654-0.133-1.301-0.225-1.938-0.273c-9.162-0.828-16.221,5.881-22.59,17.744
	c-2.619,4.869-5.121,10.611-7.605,17.057c6.055,0.232,16.883,0.297,22.209,0.297c8.25,0,14.1-1.035,18.912-6.012l3.463,0.777
	c-1.648,4.688-2.553,9.75-2.553,15.035c0,4.938,0.787,9.684,2.237,14.107l-4.183,0.672c-1.376-3.439-2.925-8.764-3.612-12.727
	c-4.29-0.686-9.534-0.064-13.834-0.064h-25.397c-1.973,6.701-2.138,14.496,0.041,21.297c0.123,0.391,0.256,0.779,0.396,1.16
	c3.778,10.322,13.238,17.977,30.419,15.258c10.164-1.605,16.774-5.756,24.106-11.189
	C1757.916,551.971,1759.523,553.619,1761.256,555.133z"/>
<path fill-rule="evenodd" clip-rule="evenodd" fill="#FFFFFF" d="M1729.455,428.453l-0.523,0.693
	c-0.009,0.008-2.676,3.287-3.487,4.291c-0.423,0.521-0.854,1.061-1.292,1.598c-0.315,0.381-0.63,0.771-0.953,1.168
	c-1.02,1.26-2.07,2.553-3.139,3.869c-0.009,0.008-0.009,0.008-0.009,0.008c-1.077,1.326-2.163,2.668-3.265,4.025
	c-0.008,0.01-0.016,0.018-0.016,0.025l-1.814,2.236c-0.639,0.787-1.283,1.584-1.922,2.369
	c-11.232,13.842-22.201,27.361-22.201,27.361c-7.844,10.918-15.184,19.957-21.09,30.32l-0.008,0.014
	c-2.552,4.484-4.838,9.223-6.777,14.465c-0.016,0.025-0.023,0.051-0.033,0.074c-1.557,3.695-2.708,7.506-3.404,11.457
	c-0.008,0.025-0.016,0.051-0.016,0.076c-0.498,2.832-0.763,5.723-0.779,8.697v0.033c0,0.281,0,0.555,0.008,0.836
	c-0.008,0.207-0.008,0.422-0.008,0.639v0.033c-0.009,2.311,0.133,4.664,0.438,7.057c0.009,0.125,0.034,0.258,0.058,0.383
	c0.564,3.238,1.476,6.627,2.686,10.402c0,0,0.96,2.545,0.969,2.553c1.061,2.203,2.17,4.191,3.322,5.998
	c0.422,0.654,0.845,1.283,1.283,1.889c5.889,8.24,13.097,12.193,22.73,15.166c2.07,0.637,3.951,1.16,5.742,1.574c0,0,0,0,0.007,0
	c0.464,0.107,0.929,0.215,1.384,0.307c0.762,0.166,1.516,0.307,2.262,0.422c0.588,0.109,1.176,0.191,1.764,0.275
	c2.52,0.348,5.07,0.529,7.953,0.611l8.955-0.049h0.588c1.151,0.082,2.212,0.355,3.205,0.762c0.796,0.322,1.517,0.729,2.195,1.217
	l1.119,0.92l0.265,0.215l0.009,0.008l0.463,0.391l-5.574,6.742l-0.009,0.01l-10.669,12.965h-0.009
	c-0.845,1.035-1.723,2.086-2.617,3.164h-28.86l1.25-1.508l0.322-0.391c3.621-4.365,6.918-8.314,10.174-12.277
	c0.24-0.297,0.473-0.594,0.679-0.902l8.458-10.23l0.695-0.852c-0.397,0-0.812,0.008-1.242,0.008
	c-6.006,0.031-15.292,0.025-23.891-0.1c-21.306-0.273-38.371-13.338-43.208-32.58c-1.284-5.16-1.864-10.064-1.79-14.771
	c-0.099-6.85,1.168-13.27,3.588-19.441c2.634-6.719,6.121-14.34,11.025-22.002l14.703-20.783l7.315-9.527
	c8.698-11.355,15.118-18.496,24.37-30.027l24.464-30.234L1729.455,428.453z"/>
<rect x="970.976" fill="#6753A3" width="431.398" height="277.593"/>
<text transform="matrix(1 0 0 1 1154.7871 100.7524)" fill="#FFFFFF" font-family="'JosefinSans-Regular'" font-size="58">F</text>
<text transform="matrix(1 0 0 1 1184.4131 100.7524)"><tspan x="0" y="0" fill="#FFFFFF" font-family="'JosefinSans-Regular'" font-size="54" letter-spacing="-2">u</tspan><tspan x="26.784" y="0" fill="#FFFFFF" font-family="'JosefinSans-Regular'" font-size="54" letter-spacing="-2">n</tspan><tspan x="54.27" y="0" fill="#FFFFFF" font-family="'JosefinSans-Regular'" font-size="54" letter-spacing="-2">d</tspan><tspan x="84.022" y="0" fill="#FFFFFF" font-family="'JosefinSans-Regular'" font-size="54" letter-spacing="-2">a</tspan><tspan x="113.398" y="0" fill="#FFFFFF" font-family="'JosefinSans-Regular'" font-size="54" letter-spacing="-3">c</tspan><tspan x="134.89" y="0" fill="#FFFFFF" font-family="'JosefinSans-Regular'" font-size="54" letter-spacing="-2">j</tspan><tspan x="146.607" y="0" fill="#FFFFFF" font-family="'JosefinSans-Regular'" font-size="54">a</tspan></text>
<g>
	<path fill="#FFFFFF" d="M1234.82,149.555c0-17.17-10.729-34.17-27.89-34.17c-8.59,7.59-16.34,18.32-20.311,28.88l-1.649-0.16
		c0-9.24,0.99-18.32,3.14-27.57l-1.16-1.149c-14.85,2.64-26.409,3.3-36.479,3.3v3.63c2.811,0.16,6.77,0.99,9.25,2.15
		c1.15,8.58,1.48,19.64,1.48,46.71c0,17.5-0.16,37.14-3.131,55.13c-2.32,1.16-5.619,2.479-8.26,3.14l0.66,3.63
		c8.92-1.149,17.83-1.319,23.439-1.319c7.601,0,16.011,0.66,23.61,2.149l0.82-3.47c-3.3-1.49-9.08-3.63-13.2-4.62
		c-1.16-8.26-1.32-17.17-1.32-25.59c3.96,0.66,7.75,0.99,11.061,0.99C1216.011,192.305,1234.82,172.666,1234.82,149.555z
		 M1186.95,183.395c-0.489-5.29-0.659-7.76-0.659-28.07c5.449-14.85,11.72-20.79,15.02-20.79c4.79,0,7.1,7.421,7.1,22.61
		c0,9.24-0.989,21.62-3.3,30.7c-2.31,0.66-4.46,0.83-6.77,0.83C1194.221,188.675,1189.591,186.695,1186.95,183.395z"/>
	<path fill="#FFFFFF" d="M1250.815,124.46c-2.476-1.156-6.438-1.98-9.243-2.146v-3.631c10.069,0,23.274-0.661,38.131-3.302
		l1.155,1.155c-2.146,9.243-3.467,21.954-3.467,41.103c0,18.488,0.496,30.537,1.485,35.324c3.468,0.99,7.595,2.477,10.896,3.961
		l-0.495,3.303c-7.429-0.991-17.333-1.486-24.761-1.486c-7.264,0-17.167,0.165-24.431,1.156l-0.495-3.303
		c2.972-1.649,6.934-2.971,10.234-4.125c0.99-4.952,2.312-23.936,2.312-46.881C1252.137,138.657,1251.642,131.229,1250.815,124.46
		L1250.815,124.46z"/>
	<path fill="#FFFFFF" d="M1356.285,172.992c-5.612,11.555-14.856,22.614-26.576,28.227c-21.954,0-35.819-14.361-35.819-36.314
		c0-21.13,19.478-41.268,38.955-49.521c8.42,0,19.645,1.484,27.897,4.292v2.641c-11.39,10.234-13.04,15.187-14.196,25.257h-3.961
		c-0.33-4.127-0.66-6.935-1.651-10.565c-4.456-4.292-11.555-7.593-17.662-8.253c-1.815,9.738-2.972,19.148-2.972,29.217
		c0,12.875,2.477,25.255,15.352,25.255c6.934,0,14.361-5.612,17.992-11.554L1356.285,172.992z"/>
</g>
<path fill="#FFFFFF" d="M1147.281,180.133c-14.025,13.412-29.424,20.678-44.178,20.678c-7.439,0-13.934-0.199-20.727-2.312
	c-8.822-2.75-17.761-6.105-21.994-19.243c-2.766-8.615-2.559-15.31,0.34-24.363c3.164-9.873,9.236-20.354,17.537-32.497l6.279-8.938
	c0.771-0.961,1.541-1.93,2.32-2.9c4.836-6.037,9.717-12.134,14.596-18.216c2.037-2.542,4.074-5.077,6.105-7.612l0.703-0.862
	l1.914-2.367l8.408-10.381c0.348-0.496,0.746-1.002,1.159-1.516l4.15-5.111l0.058-0.074l2.088,2.7
	c0.406,0.53,0.787,1.044,1.126,1.55l10.206,13.195l0.506,0.654c1.49,1.947,2.982,3.895,4.473,5.841
	c0.157,0.207,0.314,0.405,0.465,0.613v33.946l-3.778,0.017l-2.493,0.018c-0.861-6.454-2.824-11.913-5.434-15.524h-0.01
	c-1.457-2.037-3.123-3.488-4.912-4.2c-0.031-0.008-0.057-0.025-0.091-0.033c-0.952-0.373-1.938-0.695-2.933-0.961
	c-0.257-0.066-0.514-0.133-0.77-0.19l0.008,0.008c-0.654-0.132-1.301-0.224-1.938-0.272c-9.162-0.828-16.221,5.881-22.59,17.744
	c-2.619,4.869-5.121,10.611-7.605,17.056c6.055,0.232,16.883,0.298,22.209,0.298c8.25,0,14.1-1.035,18.912-6.013l3.463,0.778
	c-1.648,4.688-2.553,9.75-2.553,15.034c0,4.938,0.787,9.685,2.237,14.107l-4.183,0.672c-1.376-3.439-2.925-8.764-3.612-12.726
	c-4.29-0.687-9.534-0.065-13.834-0.065h-25.397c-1.973,6.702-2.138,14.497,0.041,21.298c0.123,0.39,0.256,0.779,0.396,1.16
	c3.778,10.321,13.238,17.977,30.419,15.258c10.164-1.605,16.774-5.756,24.106-11.19
	C1143.941,176.97,1145.549,178.619,1147.281,180.133z"/>
<path fill="#FFFFFF" d="M1074.541,89.535l-7.58,10.79C1069.341,96.845,1071.871,93.255,1074.541,89.535z"/>
<path opacity="0.5" fill-rule="evenodd" clip-rule="evenodd" fill="#FFFFFF" d="M1074.541,89.535l-7.58,10.79
	C1069.341,96.845,1071.871,93.255,1074.541,89.535z"/>
<path fill-rule="evenodd" clip-rule="evenodd" fill="#FFFFFF" d="M1115.48,53.453l-0.523,0.693
	c-0.009,0.008-2.676,3.288-3.487,4.291c-0.423,0.521-0.854,1.061-1.292,1.598c-0.315,0.382-0.63,0.771-0.953,1.169
	c-1.02,1.259-2.07,2.552-3.139,3.868c-0.009,0.009-0.009,0.009-0.009,0.009c-1.077,1.325-2.163,2.667-3.265,4.025
	c-0.008,0.009-0.016,0.017-0.016,0.024l-1.814,2.237c-0.639,0.787-1.283,1.583-1.922,2.369
	c-11.232,13.842-22.201,27.36-22.201,27.36c-7.844,10.919-15.184,19.957-21.09,30.32l-0.008,0.015
	c-2.552,4.483-4.838,9.222-6.777,14.464c-0.016,0.026-0.023,0.051-0.033,0.075c-1.557,3.695-2.708,7.505-3.404,11.457
	c-0.008,0.024-0.016,0.05-0.016,0.075c-0.498,2.832-0.763,5.723-0.779,8.698v0.032c0,0.281,0,0.556,0.008,0.837
	c-0.008,0.207-0.008,0.422-0.008,0.638v0.033c-0.009,2.311,0.133,4.664,0.438,7.058c0.009,0.124,0.034,0.257,0.058,0.382
	c0.564,3.238,1.476,6.627,2.686,10.403c0,0,0.96,2.544,0.969,2.552c1.061,2.203,2.17,4.192,3.322,5.998
	c0.422,0.654,0.845,1.283,1.283,1.889c5.889,8.241,13.097,12.193,22.73,15.167c2.07,0.637,3.951,1.16,5.742,1.574c0,0,0,0,0.007,0
	c0.464,0.107,0.929,0.215,1.384,0.306c0.762,0.166,1.516,0.308,2.262,0.423c0.588,0.108,1.176,0.19,1.764,0.274
	c2.52,0.348,5.07,0.53,7.953,0.612l8.955-0.05h0.588c1.151,0.082,2.212,0.355,3.205,0.763c0.796,0.321,1.517,0.729,2.195,1.217
	l1.119,0.92l0.265,0.215l0.009,0.008l0.463,0.391l-5.574,6.742l-0.009,0.009l-10.669,12.965h-0.009
	c-0.845,1.035-1.723,2.086-2.617,3.164h-28.86l1.25-1.508l0.322-0.39c3.621-4.366,6.918-8.315,10.174-12.277
	c0.24-0.298,0.473-0.595,0.679-0.902l8.458-10.231l0.695-0.852c-0.397,0-0.812,0.008-1.242,0.008
	c-6.006,0.032-15.292,0.025-23.891-0.099c-21.306-0.274-38.371-13.338-43.208-32.581c-1.284-5.16-1.864-10.064-1.79-14.771
	c-0.099-6.851,1.168-13.27,3.588-19.441c2.634-6.719,6.121-14.34,11.025-22.002l14.703-20.784l7.315-9.526
	c8.698-11.356,15.118-18.497,24.37-30.028l24.464-30.234L1115.48,53.453z"/>
<text transform="matrix(1 0 0 1 1663.2617 100.7524)" fill="#FFFFFF" font-family="'JosefinSans-Regular'" font-size="58">F</text>
<text transform="matrix(1 0 0 1 1692.8877 100.7524)"><tspan x="0" y="0" fill="#FFFFFF" font-family="'JosefinSans-Regular'" font-size="54" letter-spacing="-2">u</tspan><tspan x="26.784" y="0" fill="#FFFFFF" font-family="'JosefinSans-Regular'" font-size="54" letter-spacing="-2">n</tspan><tspan x="54.27" y="0" fill="#FFFFFF" font-family="'JosefinSans-Regular'" font-size="54" letter-spacing="-2">d</tspan><tspan x="84.022" y="0" fill="#FFFFFF" font-family="'JosefinSans-Regular'" font-size="54" letter-spacing="-2">a</tspan><tspan x="113.398" y="0" fill="#FFFFFF" font-family="'JosefinSans-Regular'" font-size="54" letter-spacing="-3">c</tspan><tspan x="134.89" y="0" fill="#FFFFFF" font-family="'JosefinSans-Regular'" font-size="54" letter-spacing="-2">j</tspan><tspan x="146.607" y="0" fill="#FFFFFF" font-family="'JosefinSans-Regular'" font-size="54">a</tspan></text>
<g>
	<path fill="#FFFFFF" d="M1743.295,149.555c0-17.17-10.729-34.17-27.89-34.17c-8.59,7.59-16.34,18.32-20.311,28.88l-1.649-0.16
		c0-9.24,0.99-18.32,3.14-27.57l-1.16-1.149c-14.85,2.64-26.409,3.3-36.479,3.3v3.63c2.811,0.16,6.77,0.99,9.25,2.15
		c1.15,8.58,1.48,19.64,1.48,46.71c0,17.5-0.16,37.14-3.131,55.13c-2.32,1.16-5.619,2.479-8.26,3.14l0.66,3.63
		c8.92-1.149,17.83-1.319,23.439-1.319c7.601,0,16.011,0.66,23.61,2.149l0.82-3.47c-3.3-1.49-9.08-3.63-13.2-4.62
		c-1.16-8.26-1.32-17.17-1.32-25.59c3.96,0.66,7.75,0.99,11.061,0.99C1724.485,192.305,1743.295,172.666,1743.295,149.555z
		 M1695.425,183.395c-0.489-5.29-0.659-7.76-0.659-28.07c5.449-14.85,11.72-20.79,15.02-20.79c4.79,0,7.1,7.421,7.1,22.61
		c0,9.24-0.989,21.62-3.3,30.7c-2.31,0.66-4.46,0.83-6.77,0.83C1702.695,188.675,1698.065,186.695,1695.425,183.395z"/>
	<path fill="#FFFFFF" d="M1759.29,124.46c-2.476-1.156-6.438-1.98-9.243-2.146v-3.631c10.069,0,23.274-0.661,38.131-3.302
		l1.155,1.155c-2.146,9.243-3.467,21.954-3.467,41.103c0,18.488,0.496,30.537,1.485,35.324c3.468,0.99,7.595,2.477,10.896,3.961
		l-0.495,3.303c-7.429-0.991-17.333-1.486-24.761-1.486c-7.264,0-17.167,0.165-24.431,1.156l-0.495-3.303
		c2.972-1.649,6.934-2.971,10.234-4.125c0.99-4.952,2.312-23.936,2.312-46.881C1760.611,138.657,1760.116,131.229,1759.29,124.46
		L1759.29,124.46z"/>
	<path fill="#FFFFFF" d="M1864.76,172.992c-5.612,11.555-14.856,22.614-26.576,28.227c-21.954,0-35.819-14.361-35.819-36.314
		c0-21.13,19.478-41.268,38.955-49.521c8.42,0,19.645,1.484,27.897,4.292v2.641c-11.39,10.234-13.04,15.187-14.196,25.257h-3.961
		c-0.33-4.127-0.66-6.935-1.651-10.565c-4.456-4.292-11.555-7.593-17.662-8.253c-1.815,9.738-2.972,19.148-2.972,29.217
		c0,12.875,2.477,25.255,15.352,25.255c6.934,0,14.361-5.612,17.992-11.554L1864.76,172.992z"/>
</g>
<path fill="#FFFFFF" d="M1655.756,180.133c-14.025,13.412-29.424,20.678-44.178,20.678c-7.439,0-13.934-0.199-20.727-2.312
	c-8.822-2.75-17.761-6.105-21.994-19.243c-2.766-8.615-2.559-15.31,0.34-24.363c3.164-9.873,9.236-20.354,17.537-32.497l6.279-8.938
	c0.771-0.961,1.541-1.93,2.32-2.9c4.836-6.037,9.717-12.134,14.596-18.216c2.037-2.542,4.074-5.077,6.105-7.612l0.703-0.862
	l1.914-2.367l8.408-10.381c0.348-0.496,0.746-1.002,1.159-1.516l4.15-5.111l0.058-0.074l2.088,2.7
	c0.406,0.53,0.787,1.044,1.126,1.55l10.206,13.195l0.506,0.654c1.49,1.947,2.982,3.895,4.473,5.841
	c0.157,0.207,0.314,0.405,0.465,0.613v33.946l-3.778,0.017l-2.493,0.018c-0.861-6.454-2.824-11.913-5.434-15.524h-0.01
	c-1.457-2.037-3.123-3.488-4.912-4.2c-0.031-0.008-0.057-0.025-0.091-0.033c-0.952-0.373-1.938-0.695-2.933-0.961
	c-0.257-0.066-0.514-0.133-0.77-0.19l0.008,0.008c-0.654-0.132-1.301-0.224-1.938-0.272c-9.162-0.828-16.221,5.881-22.59,17.744
	c-2.619,4.869-5.121,10.611-7.605,17.056c6.055,0.232,16.883,0.298,22.209,0.298c8.25,0,14.1-1.035,18.912-6.013l3.463,0.778
	c-1.648,4.688-2.553,9.75-2.553,15.034c0,4.938,0.787,9.685,2.237,14.107l-4.183,0.672c-1.376-3.439-2.925-8.764-3.612-12.726
	c-4.29-0.687-9.534-0.065-13.834-0.065h-25.397c-1.973,6.702-2.138,14.497,0.041,21.298c0.123,0.39,0.256,0.779,0.396,1.16
	c3.778,10.321,13.238,17.977,30.419,15.258c10.164-1.605,16.774-5.756,24.106-11.19
	C1652.416,176.97,1654.023,178.619,1655.756,180.133z"/>
<path fill="#FFFFFF" d="M1583.016,89.535l-7.58,10.79C1577.815,96.845,1580.346,93.255,1583.016,89.535z"/>
<path opacity="0.5" fill-rule="evenodd" clip-rule="evenodd" fill="#FFFFFF" d="M1583.016,89.535l-7.58,10.79
	C1577.815,96.845,1580.346,93.255,1583.016,89.535z"/>
<path fill-rule="evenodd" clip-rule="evenodd" fill="#FFFFFF" d="M1623.955,53.453l-0.523,0.693
	c-0.009,0.008-2.676,3.288-3.487,4.291c-0.423,0.521-0.854,1.061-1.292,1.598c-0.315,0.382-0.63,0.771-0.953,1.169
	c-1.02,1.259-2.07,2.552-3.139,3.868c-0.009,0.009-0.009,0.009-0.009,0.009c-1.077,1.325-2.163,2.667-3.265,4.025
	c-0.008,0.009-0.016,0.017-0.016,0.024l-1.814,2.237c-0.639,0.787-1.283,1.583-1.922,2.369
	c-11.232,13.842-22.201,27.36-22.201,27.36c-7.844,10.919-15.184,19.957-21.09,30.32l-0.008,0.015
	c-2.552,4.483-4.838,9.222-6.777,14.464c-0.016,0.026-0.023,0.051-0.033,0.075c-1.557,3.695-2.708,7.505-3.404,11.457
	c-0.008,0.024-0.016,0.05-0.016,0.075c-0.498,2.832-0.763,5.723-0.779,8.698v0.032c0,0.281,0,0.556,0.008,0.837
	c-0.008,0.207-0.008,0.422-0.008,0.638v0.033c-0.009,2.311,0.133,4.664,0.438,7.058c0.009,0.124,0.034,0.257,0.058,0.382
	c0.564,3.238,1.476,6.627,2.686,10.403c0,0,0.96,2.544,0.969,2.552c1.061,2.203,2.17,4.192,3.322,5.998
	c0.422,0.654,0.845,1.283,1.283,1.889c5.889,8.241,13.097,12.193,22.73,15.167c2.07,0.637,3.951,1.16,5.742,1.574c0,0,0,0,0.007,0
	c0.464,0.107,0.929,0.215,1.384,0.306c0.762,0.166,1.516,0.308,2.262,0.423c0.588,0.108,1.176,0.19,1.764,0.274
	c2.52,0.348,5.07,0.53,7.953,0.612l8.955-0.05h0.588c1.151,0.082,2.212,0.355,3.205,0.763c0.796,0.321,1.517,0.729,2.195,1.217
	l1.119,0.92l0.265,0.215l0.009,0.008l0.463,0.391l-5.574,6.742l-0.009,0.009l-10.669,12.965h-0.009
	c-0.845,1.035-1.723,2.086-2.617,3.164h-28.86l1.25-1.508l0.322-0.39c3.621-4.366,6.918-8.315,10.174-12.277
	c0.24-0.298,0.473-0.595,0.679-0.902l8.458-10.231l0.695-0.852c-0.397,0-0.812,0.008-1.242,0.008
	c-6.006,0.032-15.292,0.025-23.891-0.099c-21.306-0.274-38.371-13.338-43.208-32.581c-1.284-5.16-1.864-10.064-1.79-14.771
	c-0.099-6.851,1.168-13.27,3.588-19.441c2.634-6.719,6.121-14.34,11.025-22.002l14.703-20.784l7.315-9.526
	c8.698-11.356,15.118-18.497,24.37-30.028l24.464-30.234L1623.955,53.453z"/>
</svg>
