<?xml version="1.0" encoding="utf-8"?>
<!-- Generator: Adobe Illustrator 16.0.0, SVG Export Plug-In . SVG Version: 6.00 Build 0)  -->
<!DOCTYPE svg PUBLIC "-//W3C//DTD SVG 1.1//EN" "http://www.w3.org/Graphics/SVG/1.1/DTD/svg11.dtd">
<svg version="1.1" id="Layer_1" xmlns="http://www.w3.org/2000/svg" xmlns:xlink="http://www.w3.org/1999/xlink" x="0px" y="0px"
	 width="85.476px" height="205.62px" viewBox="0 0 85.476 205.62" enable-background="new 0 0 85.476 205.62" xml:space="preserve">
<path fill-rule="evenodd" clip-rule="evenodd" fill="#FFFFFF" d="M85.476,0v205.62h-36.92l1.25-1.51l0.319-0.39
	c3.631-4.36,6.921-8.311,10.181-12.271c0.24-0.3,0.47-0.6,0.68-0.91l8.45-10.229l0.7-0.851c-0.4,0-0.811,0.011-1.24,0.011
	c-6.01,0.029-15.29,0.029-23.89-0.101c-21.311-0.27-38.37-13.34-43.21-32.58c-1.28-5.159-1.86-10.06-1.79-14.77
	c-0.101-6.851,1.17-13.271,3.59-19.44c2.63-6.72,6.12-14.34,11.02-22l14.71-20.79l7.311-9.52c8.7-11.36,15.12-18.5,24.37-30.03
	L85.476,0z"/>
<path fill-rule="evenodd" clip-rule="evenodd" fill="#FFFFFF" d="M-217.999,0v205.62h36.92l-1.25-1.51l-0.319-0.39
	c-3.631-4.36-6.921-8.311-10.181-12.271c-0.24-0.3-0.47-0.6-0.68-0.91l-8.45-10.229l-0.7-0.851c0.4,0,0.811,0.011,1.24,0.011
	c6.01,0.029,15.29,0.029,23.89-0.101c21.311-0.27,38.37-13.34,43.21-32.58c1.28-5.159,1.86-10.06,1.79-14.77
	c0.101-6.851-1.17-13.271-3.59-19.44c-2.63-6.72-6.12-14.34-11.02-22l-14.71-20.79l-7.311-9.52c-8.7-11.36-15.12-18.5-24.37-30.03
	L-217.999,0z"/>
</svg>
